<svg xmlns="http://www.w3.org/2000/svg" width="116.531" height="53.738" viewBox="0 0 116.531 53.738"><g id="Group_14" data-name="Group 14" transform="translate(-661.311 -4217.808)"><path id="Path_12" data-name="Path 12" d="M20.018,47.4c-5.363-3.491-8.857-7.763-10.165-12.31V55.482H2.3V4.726H9.854V26.934a20.33,20.33,0,0,1,7.683-10.312C28.153,8.471,35.04,3.235,35.04,3.235l4.525,6.126S32.69,14.588,22.1,22.724c-2.48,1.9-5.421,4.932-5.272,8.532.116,3.234,2.742,6.755,7.194,9.655,11.13,6.825,15.221,9.586,15.388,9.7l-4.2,6.36c-.041-.026-4.161-2.808-15.188-9.573" transform="translate(659.016 4214.573)"></path><path id="Path_13" data-name="Path 13" d="M156.78,59.034V8.283h7.552V59.039Z" transform="translate(550.149 4211.015)"></path><path id="Path_14" data-name="Path 14" d="M260.19,8.284H254.5a5.284,5.284,0,0,0-3.606,1.677L237.7,23.924c-3.991,4.376-7.971,0-7.971,0L216.465,9.961a5.284,5.284,0,0,0-3.606-1.677h-5.827c-1.314.027-1.66.462-1.627.951a1.4,1.4,0,0,0,.27.742c.2.352,18.416,19.735,18.416,19.735,4.051,4.3.017,8.614.011,8.62L206.866,56.715c-2.177,2.32,1.006,2.32,1.006,2.32h5.761a5.084,5.084,0,0,0,3.309-1.385c.2-.176,12.787-13.534,12.787-13.534,3.969-4.376,7.938-.017,7.954,0l12.5,13.243a5.27,5.27,0,0,0,3.612,1.682h5.684s3.188,0,1.011-2.325L243.308,38.337c-4.013-4.3-.033-8.592,0-8.631l17.888-19.1c2.177-2.325-1.006-2.325-1.006-2.325" transform="translate(515.885 4211.015)"></path></g></svg>