<svg id="Layer_2" data-name="Layer 2" xmlns="http://www.w3.org/2000/svg" xmlns:xlink="http://www.w3.org/1999/xlink" viewBox="0 0 306 85.6"><defs><style>.cls-1,.cls-2{fill:inherit}.cls-2{clip-path:url(#clippath-1)}.cls-3{clip-path:url(#clippath)}.cls-4{clip-path:url(#clippath-2)}</style><clipPath id="clippath"><rect class="cls-1" x="2" y="2" width="304" height="83.6"></rect></clipPath><clipPath id="clippath-1"><polygon class="cls-1" points="3 3 4 3 3 4 3 3"></polygon></clipPath><clipPath id="clippath-2"><polygon class="cls-2" points="1 1 0 1 1 0 1 1"></polygon></clipPath></defs><g id="Layer_1-2" data-name="Layer 1"><g><g class="cls-3"><g><path d="M273.14,28.01h-24.68V2.21h-8.73V28h-8.24v8.07h8.24v20.83c0,29.96,30,26.81,30,26.81l2.72-.1v-7.9l-.85,.03c-1.62,.12-3.25,.12-4.87,0-5.58-.1-18.7-1.98-18.27-17.74v-21.92h24.69v-8.07Z"></path><path d="M71.78,17.08c3.76,0,6.8-3.04,6.8-6.8h0c0-3.76-3.04-6.8-6.8-6.8h0c-3.76,0-6.8,3.04-6.8,6.8s3.04,6.8,6.8,6.8"></path></g></g><path d="M67.52,85.6h8.3V23.2h-8.3v62.4Z"></path><path d="M2,3.42V85.6H51.66v-9H10.99V3.42H2Z"></path><path d="M149.52,55.64v-22.78c0-16.4-12.71-29.7-28.39-29.7s-28.38,13.3-28.38,29.7,12.71,29.7,28.38,29.7c7.4-.03,14.49-3.02,19.66-8.32v2.5c0,20.74-20.74,20.74-20.74,20.74h-3.26v8.12h2.77s29.96,0,29.96-29.95m-7.94-22.8c0,11.82-9.15,21.4-20.45,21.4s-20.43-9.56-20.43-21.39,9.15-21.4,20.44-21.4,20.45,9.6,20.45,21.4"></path><path d="M223.97,82.62v-26.72c0-16.4-12.7-29.69-28.38-29.69-7.4,.02-14.48,3.01-19.65,8.3v-2.49c0-20.74,20.74-20.74,20.74-20.74h3.26V3.16h-2.77s-29.96,0-29.96,29.96v9.88h-.04v39.62h8.3v-30.38c1.66-10.07,10.03-17.73,20.13-17.73,11.3,0,20.45,9.58,20.45,21.4,0,.33-.04,.65-.05,.97h.15v25.74h7.82Z"></path><path d="M283.1,36.02l-.08-3.05c-.18-3.1-.12-6.21,.2-9.3,.58-4.3,5.02-6.93,8.99-6.99h.92c1.28,.03,2.56-.04,3.83-.22,2.55-.29,4.37-2.59,4.08-5.14,0-.05-.01-.11-.02-.16-.21-2.51-2.36-4.41-4.88-4.29-1.56-.02-3.24-.03-5.3-.03h-3.75s-2.66,.02-2.66,.02V2.18c1.22-.02,2.45-.05,3.65-.09,1.56-.05,3.17-.1,4.74-.1,1.97-.02,3.94,.09,5.9,.32,4.4,.55,7.77,5.38,7.23,10.34-.46,4.92-4.51,8.72-9.44,8.87h-1.27s-2.05,.01-2.05,.01c-3.57,.03-5.4,1.82-5.43,5.33v4.32h17.13v4.84h-21.79Z"></path></g></g></svg>