<svg id="Layer_2" data-name="Layer 2" xmlns="http://www.w3.org/2000/svg" xmlns:xlink="http://www.w3.org/1999/xlink" viewBox="0 0 409.07 95.37"><defs><style>.cls-1{fill:none}.cls-2{clip-path:url(#clippath)}</style><clipPath id="clippath"><rect class="cls-1" width="409.07" height="95.37"></rect></clipPath></defs><g id="Layer_1-2" data-name="Layer 1"><g class="cls-2"><g><path d="M409.08,24.03v-.43h-4.97V4.8c.03-.8-.14-1.6-.5-2.32-.31-.57-.77-1.06-1.32-1.4-.65-.39-1.36-.67-2.1-.82-.88-.18-1.77-.27-2.66-.27-1,.01-2,.09-2.99,.25-1.13,.21-2.16,.81-2.91,1.68l-14.77,18.59c-.56,.75-.99,1.59-1.26,2.49-.15,.57-.21,1.16-.18,1.75-.05,1.17,.23,2.32,.82,3.33,.54,.78,1.53,1.74,4.42,1.88h15.3c0,.07-.27,5.24,2.62,6.96,1.47,.97,3.2,1.45,4.96,1.36h.55l.02-8.32v-.03c1.8-.12,4.96-1,4.96-5.9m-12.68-.47h-11.21c-.37-.02-.8-.08-.85-.35-.08-.2,.05-.55,.28-.97l8.94-12.63,.34-.38c.17-.17,.86-.58,1.27-.4,.69,.07,1.17,.75,1.23,1.93v12.8Z"></path><path d="M258.76,79.63c-10.28,0-20.13-4.08-27.4-11.34-14.61-14.75-14.9-37.89-.66-53.83,7-7.68,16.94-12.01,27.33-11.92,8.45,.03,16.66,2.75,23.45,7.78l.43,.32-.28,.45c-.05,.1-.11,.19-.19,.27-2.77,5.12-7.12,7.01-11.9,5.23-.45-.22-.86-.4-1.28-.58l-.41-.17c-3.92-1.56-8.17-2.11-12.35-1.59-6.74,.78-12.93,4.12-17.29,9.33-8.87,10.33-8.58,25.67,.68,35.65,7.77,8.5,17.62,10.9,28.64,6.6l.71-.27,1.15-.5c4.73-1.69,9,.23,11.74,5.24l.46,.72,.27,.44-.4,.33c-6.45,5.13-14.46,7.9-22.7,7.84"></path><path d="M128.95,78.5c-.72,0-1.46-.02-2.18-.08-.2-.01-.39-.04-.58-.07l-.88-.16c-12.7-1.78-22.79-11.48-24.63-23.77-.57-4.49-.82-9.01-.74-13.53-.06-9.57,0-35.85,0-36.12v-.57h1.3c3.48,0,6.15,.97,7.95,2.87,1.27,1.36,2.73,3.9,2.46,8.25,0,.05,.02,.13,.02,8.57v1.57l.02,21.9c.03,10,5.65,17.44,14.3,18.96l.5,.1c.86,.13,1.73,.19,2.6,.2,10.32,0,17.55-7.92,17.59-19.25,.02-7.3,.03-14.6,.02-21.91v-1.57c0-6.5,0-8.04,.03-8.44h0c-.28-4.49,1.18-7.02,2.46-8.38,1.8-1.9,4.46-2.87,7.93-2.87h1.31v.58c0,.27,.06,26.55,0,36.12,.08,4.52-.17,9.04-.74,13.53-2.05,13.73-14.4,24.08-28.73,24.08"></path><path d="M195.7,77.88h-1.24c-2.57,.16-5.09-.78-6.93-2.58-1.84-1.94-2.7-4.9-2.5-8.53,0-.19-.02-5.59,0-8.58l-.02-21.51v-12.8c0-2.23,0-8.38,.03-8.52-.21-3.7,.65-6.65,2.49-8.6,1.84-1.8,4.36-2.73,6.93-2.57h1.23v.58s.04,17.94,.02,29.67c.02,13.22-.02,42.86-.02,42.86l.02,.58Z"></path><path d="M58.23,95.37c-1.2,0-2.16,0-2.37-.02-4.3-.23-6.3-1.92-7.64-6.45-1.96-7.27-5.8-8.1-8.52-8.1-.46,0-.89,.02-1.26,.04l-.68,.03h-.72c-.37,0-.74,0-1.05-.03C15.17,79.48-.96,61.2,.04,40.09,1.01,19.7,18.55,3.1,39.14,3.1h.84c17.12,.55,31.88,12.21,36.38,28.74,4.17,15.43-1.48,31.84-14.27,41.43l-.61,.45-.03-.06c-2.61,1.8-4.1,3.86-4.46,6.13-.25,1.62-.03,4.2,2.4,7.32l.14,.19,3.87,5.67,1.56,2.37-6.72,.02M38.7,14.23c-15.3,.13-27.64,12.58-27.63,27.88,.07,15.31,12.46,27.71,27.77,27.78,7.42,0,14.52-3,19.7-8.31,5.26-5.24,8.18-12.38,8.12-19.8-.19-15.23-12.57-27.5-27.8-27.55l-.16-.58v.58Z"></path><path d="M316.47,77.88c-3.43,0-6.07-.96-7.85-2.85-1.27-1.35-2.74-3.89-2.47-8.26-.04-.24-.03-51.24,.04-51.46-.3-4.34,1.16-6.87,2.43-8.23,1.78-1.89,4.42-2.85,7.85-2.85h1.3V46.26L350.61,3.38l.35,.06c.8,.29,1.52,.78,2.08,1.42,4.79,4.9,.5,11.1,.45,11.16-.93,1.27-7.24,9.68-14.26,18.93l9.99,18.14c5.16,9.38,10.36,18.81,10.72,19.49l.46,.86h-.01l2.41,4.36h-8.01c-5.34-.43-7.33-3.95-8.93-6.77-.27-.48-.53-.95-.8-1.38-2.1-3.85-10.7-19.46-13.52-24.55l-13.74,18.1-.03,14.68h-1.3Z"></path></g></g></g></svg>